# xmcd CD database file
#
# Track frame offsets:
#	150
#	15700
#	32947
#	47830
#	66062
#	84637
#	100412
#	122180
#	143782
#	174632
#
# Disc length: 2535 seconds
#
# Revision: 0
# Processed by: cddbd v1.5.1PL0 Copyright (c) Steve Scherf et al.
# Submitted via: CDex 1.51
#
DISCID=8b09e50a
DTITLE=Disney - Disney on Jazz
DYEAR=1998
DGENRE=Jazz
TTITLE0=So This Is Love
TTITLE1=Ev'rybody Wants to Be a Cat
TTITLE2=La La Lu
TTITLE3=Alice in Wonderland
TTITLE4=Beauty and the Beast
TTITLE5=Chim Chim Cher-ee
TTITLE6=Under the Sea
TTITLE7=Some Day My Prince Will Come
TTITLE8=When You Wish Upon a Star
TTITLE9=The Bare Necessities
EXTD=YEAR: 1998
EXTT0=
EXTT1=
EXTT2=
EXTT3=
EXTT4=
EXTT5=
EXTT6=
EXTT7=
EXTT8=
EXTT9=
PLAYORDER=
